<?xml version="1.0" encoding="UTF-8" standalone="no"?>
<svg xmlns:rdf="http://www.w3.org/1999/02/22-rdf-syntax-ns#" xmlns="http://www.w3.org/2000/svg" height="435.36pt" width="810.19pt" version="1.1" xmlns:cc="http://creativecommons.org/ns#" xmlns:dc="http://purl.org/dc/elements/1.1/" viewBox="0 0 810.19153 435.36154">
<g transform="translate(-46.84 -11.218)">
<path d="m546.03 31.486c-6.3219-0.03546-12.143 5.119-12.521 11.506-1.0129 6.41 2.7222 13.69 9.3789 15.113 9.0286 3.3179 19.888-5.7202 17.686-15.25-0.58301-7.1198-7.5761-12.262-14.543-11.369z" fill="#1e9943"/>
<path d="m652.22 30.902c-9.5751 0.36153-17.619 11.334-14.018 20.449 3.5613 6.9403 12.225 11.059 19.732 8.2324 7.1075-2.125 12.98-10.084 10.094-17.533-2.2033-6.5371-8.8887-11.326-15.809-11.148z" fill="#1e9943"/>
<path fill="#22b14c" d="m553.74 11.88c5.24-2.66 7.99 3.38 11.3 6.12 6.63 7.75 16.83 13.38 18.63 24.28 2.58 5.33 1.71 16.58 10.74 14.8 11.18 4.36 13.91-7.01 20.04-12.63 6.87-6.15 12.62-13.58 19.93-19.18 9.04-2.9 18.26-5.5 27.4-8.08 7.71 5.33 11.28 14.62 18.73 20.3 6.11 4.51 8.83 12.14 14.87 16.57 53.05 7.38 109.23 1.47 159.23 23.9-0.38 10.7 4.38 21.42 1.48 31.99-3.06 10.15-4.15 20.78-7.58 30.82-13.8 2.26-14.8-13.29-20.45-21.78-7.45 6.14-11.25 15.49-18.1 22.18-6.21-7.8-8.84-17.82-14.13-26.24-10.24 4.92-14.28 17.56-23.83 23.94-7.46-5.31-11.22-14.05-18.08-19.89-4.09 8.37-8.53 16.67-13.91 24.27-6.26-7.3-9-19.06-14.09-25.65-3.33 18.65-14.2 37.23-12.63 57.01 12.77 4.81 14.71-12.45 22.62-17.19 6 9.79 10.32 21.45 16.28 31.63 14.74-5.38 23.14-21.47 38.54-25.73 5.3 7.54 11.78 14.09 17.14 21.57 8.56-4.94 14.2-14.04 23.54-17.6-3.34 20.49-4.78 41.32-8.92 61.66-51.53 1.42-103.05 2.44-154.55 4.29-6.19 12.73-13.59 24.81-20.65 37.08-2.74 5.01-4.08 11.83-10.25 13.77-5.41 1.8-10.13 6.69-15.9 6.59-2.97-17.76-2.01-36.18-6.77-53.61-4.95-0.28-9.9-0.24-14.83 0.12-2.65 16.99-2.3 34.29-4.93 51.27-8.61 4.23-19.15 5.86-25.7-2.51-5.75-12.84-3.46-27.94-8.59-41.07-57.32 2.14-114.7 3.92-172.08 6.08-8.83-1.99-12.75 7.41-17.34 12.91-5.22 5.8-11.5 10.78-15.01 17.95-3.01 6.99-11.48 6.95-17.76 9.13-7.27-10.6-8.79-24.41-17.61-33.97-4.41 11.97-0.01 29.23-8.34 41.26-5.86 3.23-11.8 6.51-18.07 8.87-7.2-13.81-8.12-30.16-15.24-43.99-20.99 7.55-42.55 14.2-63.09 22.67-8.3 17-18.31 33.09-26.34 50.24 5.27 11.1 15.05 18.69 24.73 25.8 6.38 4.77 11.45 12.52 20.14 13.03 21.49 3.06 43.31 2.95 64.78 6.16 28.67-2.93 57.32-6.25 85.86-10.4-7.2 12.7-18.57 22.44-27.01 34.31-5.87 4.57-7.96 13.41-15.81 15.28-19.88 6.35-39.56 13.34-59.45 19.61-23.26 3.07-46.69 6.69-70.13 6.76-24.47-5.87-52.09-1.33-74.21-14.92-14.15-7.19-28.52-14-42.55-21.41-14.81-12.32-25.73-28.36-39.72-41.51-4.61-17.74-8.15-36.21-9.23-54.61 3.31-26.01 1.16-52.35 4.84-78.27 8.65-20.2 16.7-40.65 25.26-60.89 3.31-8.09 10.71-13.33 16.64-19.4 14.38-9.71 23.97-24.92 38.29-34.69 6.3-5.02 10.67-12.51 18.42-15.61 31.45-14.89 63.58-28.32 95.02-43.19 87.4-9.2 175.37-6.47 263.16-7.52 0.31-7.5 4.77-13.67 7.82-20.23 3.71-8.13 12.46-11.63 18.4-17.77 5.73-3.3 12.68-3.25 19.05-4.68m-9.97 21.55c-11.03 1.2-11.98 19.98-1.54 22.76 8.66 3.97 19.18-4.05 16.62-13.52-0.4-7.41-8.52-11.12-15.08-9.24m104.25-0.17c-7.58 3.39-13.52 15.23-5.49 21.08 6.89 8.34 20.84 4.51 24.36-4.99 2.58-10.25-9.03-19.94-18.87-16.09z"/>
</g>
</svg>
