<svg height="490.66667pt" viewBox="0 0 490.66667 490.66667" width="490.66667pt" xmlns="http://www.w3.org/2000/svg"><g fill="#4fd3b2"><path d="m405.332031 53.332031 21.335938 74.667969 42.664062-32zm0 0"/><path d="m426.667969 309.332031 42.664062-32-42.664062-32zm0 0"/><path d="m433.8125 250.667969 35.519531-26.667969-42.664062-32v53.332031zm0 0"/><path d="m426.667969 128v64l42.664062-32zm0 0"/></g><path d="m277.332031 64h42.667969c0 23.5625-19.101562 42.667969-42.667969 42.667969-23.5625 0-42.664062-19.105469-42.664062-42.667969zm0 0" fill="#eff1f4"/><path d="m128 330.667969v85.332031c.003906 19.578125 13.328125 36.640625 32.320312 41.386719l-.320312 1.28125v32h-96v-21.335938c.035156-11.765625 9.566406-21.296875 21.332031-21.332031h10.667969v-53.332031c0-35.414063 14.292969-64 32-64zm0 0" fill="#4fd3b2"/><path d="m128 224v85.332031h-32c0-47.144531 14.292969-85.332031 32-85.332031zm0 0" fill="#4fd3b2"/><path d="m234.667969 64c0 23.5625 19.101562 42.667969 42.664062 42.667969 23.566407 0 42.667969-19.105469 42.667969-42.667969zm170.664062 394.667969v32h-106.664062v-21.335938c.011719-3.535156.890625-7.015625 2.558593-10.132812l-2.558593-.53125h-128c-3.488281.007812-6.964844-.421875-10.347657-1.28125-18.992187-4.746094-32.316406-21.808594-32.320312-41.386719v-234.667969h-106.667969c-6.289062 0-12.257812-2.78125-16.308593-7.59375-4.050782-4.8125-5.773438-11.164062-4.703126-17.363281 2.125-10.5 11.476563-17.964844 22.1875-17.707031h116.160157c11.765625-.035157 21.296875-9.566407 21.332031-21.335938v-21.332031c-.019531-8.175781-4.695312-15.628906-12.054688-19.199219-2.886718-1.417969-6.0625-2.148437-9.277343-2.132812h-117.335938c-11.78125 0-21.332031-9.550781-21.332031-21.335938v-32c.0351562-11.765625 9.566406-21.2968748 21.332031-21.332031h21.335938c11.765625.0351562 21.296875 9.566406 21.332031 21.332031v10.667969h320c23.5625 0 42.667969 19.101562 42.667969 42.667969v280.320312c42.664062.425781 64-16.75 64-45.65625v64c0 47.148438-10.988281 85.335938-64 85.335938zm0 0" fill="#5ce0bf"/><path d="m405.332031 490.667969h-106.664062c-5.890625 0-10.667969-4.777344-10.667969-10.667969v-21.332031c0-17.675781 14.328125-32 32-32v-42.667969c0-42.570312 18.347656-74.667969 42.667969-74.667969v21.335938c-8.695313 0-21.335938 20.777343-21.335938 53.332031v53.332031c0 5.890625-4.773437 10.667969-10.664062 10.667969h-10.667969c-5.890625 0-10.667969 4.777344-10.667969 10.667969v10.664062h85.335938v-74.664062h21.332031v85.332031c0 5.890625-4.777344 10.667969-10.667969 10.667969zm0 0" fill="#4fd3b2"/><path d="m21.332031 21.332031h21.335938v21.335938h-21.335938zm0 0" fill="#4fd3b2"/><path d="m309.332031 192v85.332031c0 5.890625-4.773437 10.667969-10.664062 10.667969v-21.332031h-21.335938v21.332031h-10.664062v-21.332031h-21.335938v21.332031c-5.890625 0-10.664062-4.777344-10.664062-10.667969v-85.332031h-21.335938v85.332031c0 17.675781 14.328125 32 32 32h53.335938c17.671875 0 32-14.324219 32-32v-85.332031zm0 0" fill="#4fd3b2"/><path d="m266.667969 64h21.332031v32h-21.332031zm0 0" fill="#c6c8cb"/></svg>