<svg height="512pt" viewBox="-21 0 512 512" width="512pt" xmlns="http://www.w3.org/2000/svg"><path d="m112.238281 485.878906-14.3125-73.957031h274.40625l-14.316406 73.957031c-2.933594 15.167969-16.210937 26.121094-31.660156 26.121094h-182.453125c-15.449219 0-28.726563-10.953125-31.664063-26.121094zm0 0" fill="#7393d8"/><path d="m367.257812 438.144531 5.074219-26.222656h-274.40625l5.074219 26.222656c87.976562 6.210938 176.28125 6.210938 264.257812 0zm0 0" fill="#3d6fb7"/><path d="m261.871094 491.851562h-53.484375c-7.707031 0-13.949219-6.246093-13.949219-13.949218v-21.578125c0-7.707031 6.242188-13.949219 13.949219-13.949219h53.484375c7.703125 0 13.949218 6.242188 13.949218 13.949219v21.578125c0 7.703125-6.246093 13.949218-13.949218 13.949218zm0 0" fill="#c8ebff"/><path d="m390.351562 198.167969c-1.851562-8.03125-13.316406-8.308594-15.542968-.375-2.3125 8.242187-5.824219 16.277343-10.050782 24.113281-9.542968 17.683594-25.097656 32.054688-43.480468 40.171875l21.507812 49.546875c23.742188-14.472656 41.304688-38.734375 47.628906-65.808594 3.648438-15.609375 3.535157-32.035156-.0625-47.648437zm0 0" fill="#ffaf5c"/><path d="m377.722656 251.796875c-14.085937-14.167969-38.613281-17.933594-54.640625-6.003906l-32.328125 136.015625h32.671875c12.511719-7.378906 24.71875-15.253906 35.605469-24.828125 15.003906-13.199219 27.519531-30.011719 32.214844-49.433594 4.699218-19.417969.566406-41.582031-13.523438-55.75zm0 0" fill="#d67f3e"/><path d="m290.753906 381.808594h23.125l45.824219-104.113282c4.886719-11.101562 6.839844-22.855468 6.136719-34.320312-13.652344-6.644531-30.636719-6.605469-42.757813 2.414062zm0 0" fill="#b25d24"/><path d="m92.53125 251.796875c14.089844-14.167969 38.613281-17.933594 54.644531-6.003906l32.324219 136.019531h-32.671875c-12.511719-7.382812-24.71875-15.257812-35.605469-24.832031-15-13.195313-27.515625-30.011719-32.214844-49.429688-4.699218-19.421875-.5625-41.585937 13.523438-55.753906zm0 0" fill="#d67f3e"/><path d="m180.347656 160.277344h109.5625v221.53125h-109.5625zm0 0" fill="#d67f3e"/><path d="m201.261719 381.808594h67.730469v-81.058594c0-18.703125-15.160157-33.867188-33.863282-33.867188s-33.867187 15.164063-33.867187 33.867188zm0 0" fill="#efeec5"/><path d="m307.015625 176.074219-38.019531 18.566406v187.167969h33.144531l39.128906-117.679688c11.230469-33.769531-3.15625-70.75-34.253906-88.054687zm0 0" fill="#ffaf5c"/><path d="m163.242188 176.074219 38.019531 18.566406v187.167969h-33.144531l-39.132813-117.679688c-11.226563-33.769531 3.160156-70.75 34.257813-88.054687zm0 0" fill="#ffaf5c"/><path d="m165.863281 343.25c-19.410156 0-35.472656 14.34375-38.164062 33.007812-.421875 2.9375 1.929687 5.550782 4.898437 5.550782h66.53125c2.96875 0 5.320313-2.613282 4.894532-5.550782-2.6875-18.664062-18.75-33.007812-38.160157-33.007812zm0 0" fill="#f2f2f2"/><path d="m204.023438 376.257812c-2.6875-18.664062-18.75-33.007812-38.160157-33.007812-2.679687 0-5.289062.28125-7.8125.800781 10.414063 3.25 18.507813 16.117188 20.042969 32.207031.277344 2.9375-1.273438 5.550782-3.234375 5.550782h24.269531c2.96875 0 5.320313-2.613282 4.894532-5.550782zm0 0" fill="#c9c9c9"/><path d="m304.394531 343.25c-19.410156 0-35.472656 14.34375-38.164062 33.007812-.421875 2.9375 1.925781 5.550782 4.894531 5.550782h66.535156c2.96875 0 5.320313-2.613282 4.894532-5.550782-2.691407-18.664062-18.75-33.007812-38.160157-33.007812zm0 0" fill="#f2f2f2"/><path d="m342.554688 376.257812c-2.691407-18.664062-18.75-33.007812-38.160157-33.007812-2.566406 0-5.070312.257812-7.496093.734375 10.703124 3.136719 19.042968 16.074219 20.613281 32.273437.285156 2.9375-1.296875 5.550782-3.292969 5.550782h23.441406c2.96875 0 5.320313-2.613282 4.894532-5.550782zm0 0" fill="#c9c9c9"/><path d="m0 387.351562c0 10.3125 7.730469 18.992188 17.976562 20.1875 144.277344 16.8125 290.023438 16.8125 434.304688 0 10.246094-1.195312 17.976562-9.875 17.976562-20.1875 0-12.140624-10.582031-21.542968-22.644531-20.167968-141.199219 16.097656-283.769531 16.097656-424.96875 0-12.066406-1.375-22.644531 8.027344-22.644531 20.167968zm0 0" fill="#40c6c2"/><path d="m447.613281 367.183594c-6.246093.714844-12.5 1.382812-18.75 2.03125 7.445313 3.03125 12.796875 10.320312 12.796875 19 0 10.421875-7.808594 19.191406-18.160156 20.398437-43.21875 5.035157-86.5625 8.566407-129.964844 10.617188 53.015625-1.652344 105.980469-5.542969 158.746094-11.691407 10.246094-1.195312 17.976562-9.871093 17.976562-20.1875 0-12.140624-10.582031-21.542968-22.644531-20.167968zm0 0" fill="#1f9b92"/><g fill="#5b586d"><path d="m314.65625 457.410156h-10.171875c-4.140625 0-7.5-3.355468-7.5-7.5 0-4.140625 3.359375-7.5 7.5-7.5h10.171875c4.140625 0 7.5 3.359375 7.5 7.5 0 4.144532-3.359375 7.5-7.5 7.5zm0 0"/><path d="m314.65625 487.632812h-10.171875c-4.140625 0-7.5-3.359374-7.5-7.5 0-4.144531 3.359375-7.5 7.5-7.5h10.171875c4.140625 0 7.5 3.355469 7.5 7.5 0 4.140626-3.359375 7.5-7.5 7.5zm0 0"/><path d="m165.769531 457.410156h-10.167969c-4.144531 0-7.5-3.355468-7.5-7.5 0-4.140625 3.355469-7.5 7.5-7.5h10.167969c4.144531 0 7.5 3.359375 7.5 7.5 0 4.144532-3.355469 7.5-7.5 7.5zm0 0"/><path d="m165.769531 487.632812h-10.167969c-4.144531 0-7.5-3.359374-7.5-7.5 0-4.144531 3.355469-7.5 7.5-7.5h10.167969c4.144531 0 7.5 3.355469 7.5 7.5 0 4.140626-3.355469 7.5-7.5 7.5zm0 0"/></g><path d="m280.371094 17.398438 24.203125-13.972657c3.886719-2.246093 8.292969-3.425781 12.78125-3.425781h14.203125c29.742187 0 54.40625 23.023438 56.457031 52.691406l1.917969 27.765625c.984375 14.257813-9.503906 26.730469-23.722656 28.207031-4.882813.507813-9.8125-.355468-14.238282-2.484374l-52.503906-25.273438zm0 0" fill="#d67f3e"/><path d="m189.882812 17.398438-24.203124-13.972657c-3.882813-2.246093-8.292969-3.425781-12.777344-3.425781h-14.203125c-29.742188 0-54.410157 23.023438-56.460938 52.691406l-1.917969 27.765625c-.984374 14.257813 9.507813 26.730469 23.722657 28.207031 4.886719.507813 9.816406-.355468 14.238281-2.484374l52.507812-25.273438zm0 0" fill="#d67f3e"/><path d="m202.890625 199.085938-34.738281-15.546876c-22.539063-10.089843-37.046875-32.476562-37.046875-57.171874v-9.8125c0-10.503907 2.59375-20.847657 7.550781-30.109376l30.496094-56.996093c9.703125-18.132813 28.59375-29.449219 49.15625-29.449219h33.640625c20.5625 0 39.453125 11.316406 49.152343 29.445312l30.5 56.996094c4.957032 9.265625 7.550782 19.609375 7.550782 30.113282v9.8125c0 24.691406-14.507813 47.082031-37.046875 57.167968l-34.738281 15.550782c-20.511719 9.183593-43.964844 9.183593-64.476563 0zm0 0" fill="#ffaf5c"/><path d="m331.601562 86.441406-30.5-56.996094c-6.246093-11.675781-16.3125-20.527343-28.175781-25.347656 3.539063 3.867188 6.589844 8.351563 9.007813 13.351563l27.554687 56.996093c4.480469 9.265626 6.824219 19.605469 6.824219 30.113282v9.8125c0 24.691406-13.109375 47.082031-33.472656 57.167968l-31.390625 15.550782c-18.535157 9.179687-39.726563 9.179687-58.257813 0l-31.390625-15.550782c-14.097656-6.984374-24.714843-19.859374-29.917969-35.316406 3.289063 20.660156 16.773438 38.589844 36.269532 47.3125l34.738281 15.550782c20.511719 9.179687 43.964844 9.179687 64.476563 0l34.738281-15.550782c22.539062-10.085937 37.046875-32.476562 37.046875-57.167968v-9.8125c0-10.503907-2.59375-20.847657-7.550782-30.113282zm0 0" fill="#d67f3e"/><path d="m191.671875 108.792969c-4.144531 0-7.5-3.359375-7.5-7.5v-4.613281c0-4.144532 3.355469-7.5 7.5-7.5 4.140625 0 7.5 3.355468 7.5 7.5v4.613281c0 4.140625-3.359375 7.5-7.5 7.5zm0 0" fill="#30303d"/><path d="m278.585938 108.792969c-4.144532 0-7.5-3.359375-7.5-7.5v-4.613281c0-4.144532 3.355468-7.5 7.5-7.5 4.140624 0 7.5 3.355468 7.5 7.5v4.613281c0 4.140625-3.359376 7.5-7.5 7.5zm0 0" fill="#30303d"/><path d="m266.183594 194.863281c0 17.152344-13.90625 31.054688-31.054688 31.054688-17.152344 0-31.054687-13.902344-31.054687-31.054688 0-17.148437 13.902343-31.054687 31.054687-31.054687 17.148438 0 31.054688 13.90625 31.054688 31.054687zm0 0" fill="#e573b7"/><path d="m271.265625 134.988281c-16.949219 0-55.328125 0-72.277344 0-20.921875 0-37.886719 16.960938-37.886719 37.886719 0 20.921875 16.964844 37.886719 37.886719 37.886719 16.949219 0 31.300781-11.128907 36.140625-26.480469 4.839844 15.351562 19.191406 26.480469 36.136719 26.480469 20.925781 0 37.886719-16.964844 37.886719-37.886719 0-20.925781-16.960938-37.886719-37.886719-37.886719zm0 0" fill="#efeec5"/><path d="m271.265625 134.988281h-22.664063c20.925782 0 37.886719 16.960938 37.886719 37.886719 0 16.976562-11.164062 31.34375-26.554687 36.160156 3.578125 1.121094 7.386718 1.726563 11.332031 1.726563 20.925781 0 37.886719-16.964844 37.886719-37.886719 0-20.925781-16.960938-37.886719-37.886719-37.886719zm0 0" fill="#c9c793"/><path d="m255.914062 113.367188c-5.570312-2.230469-12.953124-3.457032-20.785156-3.457032-7.835937 0-15.21875 1.226563-20.789062 3.457032-10.21875 4.09375-11.746094 10.496093-11.746094 13.949218 0 19.269532 14.59375 34.949219 32.535156 34.949219 17.9375 0 32.53125-15.675781 32.53125-34.949219 0-3.453125-1.523437-9.855468-11.746094-13.949218zm0 0" fill="#5b586d"/></svg>