<svg height="512pt" viewBox="0 0 512 512" width="512pt" xmlns="http://www.w3.org/2000/svg"><path d="m512 256c0 23.46875-3.160156 46.210938-9.078125 67.800781-29.710937 108.480469-129.011719 188.199219-246.921875 188.199219-36.148438 0-70.539062-7.488281-101.71875-21.011719-45.890625-19.886719-84.820312-52.839843-112.089844-94.148437-10.332031-15.660156-18.992187-32.519532-25.722656-50.328125-10.648438-28.140625-16.46875-58.640625-16.46875-90.511719 0-141.378906 114.621094-256 256-256 26.160156 0 51.398438 3.921875 75.179688 11.21875 25.480468 7.820312 49.28125 19.511719 70.691406 34.382812 19.628906 13.628907 37.25 29.9375 52.347656 48.398438 14.640625 17.878906 26.910156 37.789062 36.320312 59.230469 9.621094 21.917969 16.25 45.441406 19.390626 70.058593 1.371093 10.710938 2.070312 21.632813 2.070312 32.710938zm0 0" fill="#52aece"/><path d="m454.21875 94c-15.097656-18.460938-32.71875-34.769531-52.347656-48.398438-21.410156-14.871093-45.210938-26.5625-70.691406-34.382812-149.800782 21.351562-264.980469 150.160156-264.980469 305.859375 0 26.773437 3.410156 52.761719 9.820312 77.53125h114.300781c-10.171874-24.21875-15.5-50.46875-15.5-77.53125 0-53.507813 20.839844-103.828125 58.691407-141.667969 37.839843-37.832031 88.136719-58.671875 141.660156-58.671875 41.898437 0 81.847656 12.78125 115.367187 36.492188-9.410156-21.441407-21.679687-41.351563-36.320312-59.230469zm0 0" fill="#f73e3e"/><path d="m454.21875 94c-15.097656-18.460938-32.71875-34.769531-52.347656-48.398438-8.820313-.851562-17.722656-1.28125-26.699219-1.28125-72.851563 0-141.351563 28.371094-192.863281 79.898438-51.519532 51.511719-79.898438 120-79.898438 192.859375 0 26.632813 3.789063 52.683594 11.128906 77.53125h76.78125c-10.171874-24.21875-15.5-50.46875-15.5-77.53125 0-53.507813 20.839844-103.828125 58.691407-141.667969 37.839843-37.832031 88.136719-58.671875 141.660156-58.671875 41.898437 0 81.847656 12.78125 115.367187 36.492188-9.410156-21.441407-21.679687-41.351563-36.320312-59.230469zm0 0" fill="#ff8c2e"/><path d="m509.929688 223.289062c-3.140626-24.617187-9.769532-48.140624-19.390626-70.058593-9.410156-21.441407-21.679687-41.351563-36.320312-59.230469-25.046875-8.859375-51.699219-13.46875-79.046875-13.46875-63.191406 0-122.59375 24.609375-167.273437 69.277344-44.667969 44.691406-69.277344 104.089844-69.277344 167.269531 0 26.800781 4.429687 52.933594 12.929687 77.53125h107.160157c-13.660157-21.757813-21.5625-47.5-21.5625-75.089844 0-78.078125 63.300781-141.390625 141.390624-141.390625 61.199219 0 113.3125 38.882813 132.992188 93.292969.320312-5.101563.46875-10.242187.46875-15.421875 0-11.078125-.699219-22-2.070312-32.710938zm0 0" fill="#ffd066"/><path d="m509.929688 223.289062c-3.140626-24.617187-9.769532-48.140624-19.390626-70.058593-33.519531-23.710938-73.46875-36.492188-115.367187-36.492188-53.523437 0-103.820313 20.839844-141.660156 58.671875-37.851563 37.839844-58.691407 88.160156-58.691407 141.667969 0 27.0625 5.328126 53.3125 15.5 77.53125h70.578126c-16.988282-23.328125-27.007813-52.058594-27.007813-83.128906 0-78.089844 63.300781-141.390625 141.390625-141.390625 64.820312 0 119.457031 43.609375 136.148438 103.101562.378906-5.679687.570312-11.410156.570312-17.191406 0-11.078125-.699219-22-2.070312-32.710938zm0 0" fill="#73c66a"/><path d="m512 256c0-11.078125-.699219-22-2.070312-32.710938-5.507813-7.878906-11.757813-15.328124-18.699219-22.269531-31-31-72.21875-48.078125-116.058594-48.078125-43.84375 0-85.050781 17.078125-116.0625 48.078125-31 30.992188-48.078125 72.21875-48.078125 116.058594 0 27.5 6.71875 53.960937 19.378906 77.53125h42.988282c-16.96875-22.179687-26.160157-49.148437-26.160157-77.53125 0-34.15625 13.3125-66.289063 37.472657-90.457031 24.160156-24.160156 56.289062-37.472656 90.460937-37.472656 34.179687 0 66.296875 13.3125 90.457031 37.472656 24.160156 24.167968 37.472656 56.300781 37.472656 90.457031 0 2.25-.0625 4.492187-.179687 6.722656 5.917969-21.589843 9.078125-44.332031 9.078125-67.800781zm0 0" fill="#2b9bba"/><path d="m356.289062 424.121094c0 36.929687-29.9375 66.867187-66.878906 66.867187h-135.128906c-45.890625-19.886719-84.820312-52.839843-112.089844-94.148437-10.332031-15.660156-18.992187-32.519532-25.722656-50.328125 15.800781-17.390625 38.601562-28.3125 63.960938-28.3125 7.21875 0 14.230468.902343 20.941406 2.570312 19.527344-27.378906 51.539062-45.25 87.738281-45.25 50.589844 0 93.011719 34.871094 104.589844 81.878907 34.929687 2.210937 62.589843 31.230468 62.589843 66.722656zm0 0" fill="#e2d7db"/><path d="m136.148438 357.089844s-74.277344-15.640625-92.847657 36.160156c-.429687 1.191406-.800781 2.390625-1.109375 3.589844-10.332031-15.660156-18.992187-32.519532-25.722656-50.328125 15.800781-17.390625 38.601562-28.3125 63.960938-28.3125 7.21875 0 14.230468.902343 20.941406 2.570312 19.527344-27.378906 51.539062-45.25 87.738281-45.25-40.25 0-68.359375 44.050781-52.960937 81.570313zm0 0" fill="#c6babf"/></svg>