<svg height="512pt" viewBox="0 0 512 512" width="512pt" xmlns="http://www.w3.org/2000/svg"><path d="m512 256c0 141.386719-114.613281 256-256 256s-256-114.613281-256-256 114.613281-256 256-256 256 114.613281 256 256zm0 0" fill="#2b9bba"/><path d="m507.128906 256c0 21.050781-34.226562 37.324219-39.414062 56.742188-5.371094 20.085937 15.972656 51.261718 5.796875 68.851562-10.324219 17.839844-48.085938 14.875-62.566407 29.351562-14.480468 14.480469-11.511718 52.242188-29.351562 62.566407-17.589844 10.175781-48.765625-11.167969-68.851562-5.796875-19.414063 5.1875-35.6875 39.410156-56.742188 39.410156-21.050781 0-37.324219-34.222656-56.738281-39.410156-20.089844-5.371094-51.265625 15.972656-68.851563 5.796875-17.84375-10.324219-14.875-48.085938-29.355468-62.566407-14.480469-14.480468-52.242188-11.511718-62.566407-29.355468-10.175781-17.585938 11.167969-48.761719 5.800781-68.847656-5.191406-19.417969-39.417968-35.691407-39.417968-56.742188s34.226562-37.324219 39.414062-56.742188c5.371094-20.085937-15.972656-51.261718-5.796875-68.851562 10.324219-17.839844 48.085938-14.875 62.566407-29.351562 14.480468-14.480469 11.511718-52.242188 29.351562-62.566407 17.589844-10.175781 48.765625 11.167969 68.851562 5.796875 19.417969-5.1875 35.691407-39.414062 56.742188-39.414062s37.324219 34.226562 56.742188 39.414062c20.085937 5.371094 51.261718-15.972656 68.851562-5.796875 17.839844 10.324219 14.875 48.085938 29.351562 62.566407 14.480469 14.480468 52.242188 11.511718 62.566407 29.351562 10.175781 17.589844-11.167969 48.765625-5.796875 68.851562 5.1875 19.417969 39.414062 35.691407 39.414062 56.742188zm0 0" fill="#ffd066"/><path d="m443.097656 256c0 103.332031-83.765625 187.097656-187.097656 187.097656s-187.097656-83.765625-187.097656-187.097656 83.765625-187.097656 187.097656-187.097656 187.097656 83.765625 187.097656 187.097656zm0 0" fill="#ffbb16"/><path d="m284.222656 440.980469c-9.203125 1.398437-18.632812 2.121093-28.222656 2.121093-103.328125 0-187.097656-83.773437-187.097656-187.101562s83.769531-187.101562 187.097656-187.101562c9.589844 0 19.019531.722656 28.222656 2.121093-89.941406 13.601563-158.871094 91.242188-158.871094 184.980469s68.929688 171.378906 158.871094 184.980469zm0 0" fill="#ff8c2e"/><path d="m350.320312 300.160156c0 .449219 0 .898438-.011718 1.339844-.320313 22.839844-8.757813 43.71875-22.558594 59.871094-17.300781 20.257812-43.019531 33.097656-71.75 33.097656s-54.449219-12.839844-71.75-33.097656c-13.800781-16.152344-22.238281-37.03125-22.558594-59.871094-.011718-.441406-.011718-.890625-.011718-1.339844zm0 0" fill="#141a1e"/><path d="m350.320312 300.160156c0 .449219 0 .898438-.011718 1.339844-27.6875 8.148438-59.910156 12.828125-94.308594 12.828125s-66.621094-4.679687-94.308594-12.828125c-.011718-.441406-.011718-.890625-.011718-1.339844zm0 0" fill="#fff"/><g fill="#f73e3e"><path d="m327.75 361.371094c-17.300781 20.257812-43.019531 33.097656-71.75 33.097656s-54.449219-12.839844-71.75-33.097656c17.28125-20.261719 43.019531-33.109375 71.75-33.109375s54.46875 12.847656 71.75 33.109375zm0 0"/><path d="m274.167969 187.496094h-36.339844c-5.246094 0-9.5-4.253906-9.5-9.5s4.253906-9.5 9.5-9.5h36.335937c5.25 0 9.5 4.253906 9.5 9.5s-4.25 9.5-9.496093 9.5zm0 0"/><path d="m289.984375 233.335938c-2.582031 0-5.15625-1.046876-7.03125-3.105469-7.023437-7.722657-16.644531-11.976563-27.085937-11.976563-10.441407 0-20.058594 4.253906-27.085938 11.976563-3.53125 3.878906-9.539062 4.164062-13.421875.632812-3.878906-3.53125-4.164063-9.539062-.632813-13.421875 10.519532-11.558594 25.511719-18.1875 41.140626-18.1875 15.628906 0 30.625 6.628906 41.140624 18.1875 3.53125 3.882813 3.25 9.890625-.632812 13.421875-1.820312 1.65625-4.109375 2.472657-6.390625 2.472657zm0 0"/></g><path d="m167.59375 281.1875h-.007812c-4.050782 1.832031-8.242188 3.453125-12.582032 4.839844-5.148437-1.648438-10.101562-3.617188-14.839844-5.886719-6.621093-3.152344-12.820312-6.851563-18.570312-10.992187-13.96875-10.019532-25.320312-22.550782-33.609375-35.75-21.390625-34.039063-22.429687-72.539063 4.359375-84.070313 19.679688-8.46875 34.199219-2.417969 44.28125 6.972656 12.730469 11.839844 18.378906 29.019531 18.378906 29.019531s13.199219-40.140624 44.730469-40.03125c5.417969.019532 11.390625 1.21875 17.929687 4.039063 1.339844.582031 2.621094 1.222656 3.820313 1.929687 7.800781 4.601563 12.710937 11.882813 14.96875 20.761719 8.300781 32.539063-18.859375 86.597657-68.859375 109.167969zm0 0" fill="#141a1e"/><path d="m199.734375 145.289062-78.140625 123.859376c-13.96875-10.019532-25.320312-22.550782-33.609375-35.75l48.640625-77.097657c12.730469 11.839844 18.378906 29.019531 18.378906 29.019531s13.199219-40.140624 44.730469-40.03125zm0 0" fill="#3d4951"/><path d="m236.453125 172.019531-68.859375 109.167969h-.007812c-4.050782 1.832031-8.242188 3.453125-12.582032 4.839844-5.148437-1.648438-10.101562-3.617188-14.839844-5.886719l81.320313-128.882813c7.800781 4.601563 12.710937 11.882813 14.96875 20.761719zm0 0" fill="#3d4951"/><path d="m155.003906 295.527344c-.976562 0-1.949218-.148438-2.890625-.449219-31.742187-10.140625-52.414062-30.1875-64.167969-45.222656-15.097656-19.3125-24.316406-41.851563-25.289062-61.832031-1.097656-22.570313 8.355469-39.855469 25.933594-47.417969 14.320312-6.164063 27.894531-6.445313 40.34375-.835938 11.886718 5.355469 20.402344 15.246094 26.070312 24.152344 5.667969-8.90625 14.183594-18.792969 26.070313-24.152344 12.449219-5.609375 26.023437-5.328125 40.34375.832031 17.578125 7.566407 27.03125 24.847657 25.933593 47.421876-.96875 19.980468-10.1875 42.519531-25.289062 61.832031-11.753906 15.03125-32.425781 35.082031-64.167969 45.222656-.941406.300781-1.914062.449219-2.890625.449219zm-44.621094-140.746094c-4.46875 0-9.203124 1.089844-14.28125 3.277344-12.855468 5.53125-14.960937 18.84375-14.464843 29.042968.785156 16.152344 8.539062 34.757813 21.277343 51.054688 9.746094 12.460938 26.585938 28.921875 52.089844 37.855469 25.507813-8.933594 42.347656-25.394531 52.089844-37.855469 12.738281-16.296875 20.496094-34.902344 21.28125-51.054688.496094-10.199218-1.613281-23.511718-14.464844-29.042968-9.351562-4.027344-17.539062-4.339844-25.027344-.964844-16.667968 7.511719-24.777343 30.957031-24.855468 31.191406-1.28125 3.898438-4.917969 6.53125-9.023438 6.53125-4.101562 0-7.742187-2.632812-9.023437-6.53125-.070313-.214844-8.085938-23.6875-24.914063-31.21875-3.402344-1.523437-6.949218-2.285156-10.683594-2.285156zm0 0" fill="#f73e3e"/><path d="m363.0625 283.898438c-1.988281.761718-4.007812 1.46875-6.070312 2.128906-6.488282-2.066406-12.65625-4.667969-18.488282-7.699219-6.511718-3.378906-12.578125-7.289063-18.199218-11.609375-13.800782-10.609375-24.851563-23.660156-32.671876-37.21875-19.089843-33.03125-19.070312-69.082031 6.703126-80.171875 17.738281-7.628906 31.277343-3.46875 41.15625 4.300781 14.941406 11.71875 21.5 31.691406 21.5 31.691406s11.792968-35.851562 39.703124-39.691406c6.699219-.929687 14.339844-.011718 22.957032 3.699219.0625.03125.121094.050781.183594.082031 2.46875 1.078125 4.6875 2.378906 6.6875 3.898438 32.851562 24.878906 2.921874 105.300781-63.460938 130.589844zm0 0" fill="#141a1e"/><path d="m396.695312 145.628906-76.390624 121.089844c-13.800782-10.609375-24.851563-23.660156-32.671876-37.21875l47.859376-75.871094c14.941406 11.71875 21.5 31.691406 21.5 31.691406s11.792968-35.851562 39.703124-39.691406zm0 0" fill="#3d4951"/><path d="m436.695312 167.1875-73.632812 116.710938c-1.988281.761718-4.007812 1.46875-6.070312 2.128906-6.488282-2.066406-12.65625-4.667969-18.488282-7.699219l81.332032-128.917969 1.15625-1.839844c1.921874 1.839844 3.773437 3.75 5.53125 5.738282 3.800781 4.289062 7.210937 8.941406 10.171874 13.878906zm0 0" fill="#3d4951"/><path d="m356.996094 295.527344c-.976563 0-1.953125-.148438-2.890625-.449219-31.742188-10.140625-52.414063-30.1875-64.167969-45.222656-15.101562-19.3125-24.320312-41.851563-25.289062-61.832031-1.097657-22.574219 8.355468-39.855469 25.929687-47.417969 14.324219-6.164063 27.894531-6.445313 40.34375-.835938 11.886719 5.359375 20.40625 15.25 26.074219 24.152344 5.664062-8.90625 14.183594-18.792969 26.070312-24.152344 12.449219-5.605469 26.023438-5.328125 40.34375.835938 17.578125 7.5625 27.027344 24.847656 25.933594 47.417969-.972656 19.980468-10.191406 42.519531-25.292969 61.835937-11.75 15.03125-32.421875 35.078125-64.164062 45.21875-.941407.300781-1.914063.449219-2.890625.449219zm-44.625-140.75c-4.464844 0-9.199219 1.09375-14.28125 3.28125-12.855469 5.53125-14.960938 18.84375-14.464844 29.042968.785156 16.152344 8.542969 34.757813 21.28125 51.054688 9.742188 12.460938 26.582031 28.921875 52.089844 37.855469 25.507812-8.933594 42.34375-25.394531 52.089844-37.855469 12.738281-16.296875 20.492187-34.902344 21.277343-51.054688.496094-10.199218-1.609375-23.511718-14.464843-29.042968-9.324219-4.015625-17.492188-4.339844-24.960938-.992188-16.832031 7.53125-24.84375 31.003906-24.925781 31.238282-1.292969 3.875-4.925781 6.5-9.011719 6.5-.007812 0-.015625 0-.023438 0-4.09375-.007813-7.726562-2.628907-9.003906-6.519532-.074218-.214844-8.085937-23.6875-24.917968-31.21875-3.402344-1.523437-6.949219-2.289062-10.683594-2.289062zm0 0" fill="#f73e3e"/></svg>